<?xml version="1.0" encoding="utf-8"?>
<!-- Generator: Adobe Illustrator 16.0.0, SVG Export Plug-In . SVG Version: 6.00 Build 0)  -->
<!DOCTYPE svg PUBLIC "-//W3C//DTD SVG 1.1//EN" "http://www.w3.org/Graphics/SVG/1.1/DTD/svg11.dtd">
<svg version="1.1" id="Layer_1" xmlns="http://www.w3.org/2000/svg" xmlns:xlink="http://www.w3.org/1999/xlink" x="0px" y="0px"
	 width="128px" height="128px" viewBox="0 0 128 128" enable-background="new 0 0 128 128" xml:space="preserve">
<g>
	<g>
		<g>
			<path fill="#282D33" d="M123.992,117.977H54.416v-4.008h59.786L92.516,92.646l2.81-2.856L123.992,117.977z M46.559,117.977H4.008
				V0l26.811,26.362l-2.81,2.858L8.015,9.56v104.409h38.544V117.977z M65.063,97.487H24.848V54.25h4.007v39.23h36.208V97.487z"/>
		</g>
		<g>
			<rect x="6.011" y="107.161" fill="#282D33" width="9.231" height="4.007"/>
		</g>
		<g>
			<rect x="6.011" y="98.312" fill="#282D33" width="5.309" height="4.007"/>
		</g>
		<g>
			<rect x="6.011" y="89.461" fill="#282D33" width="9.231" height="4.007"/>
		</g>
		<g>
			<rect x="6.011" y="80.61" fill="#282D33" width="5.309" height="4.008"/>
		</g>
		<g>
			<rect x="6.011" y="71.761" fill="#282D33" width="9.231" height="4.008"/>
		</g>
		<g>
			<rect x="6.011" y="62.909" fill="#282D33" width="5.309" height="4.007"/>
		</g>
		<g>
			<rect x="6.011" y="54.061" fill="#282D33" width="9.231" height="4.007"/>
		</g>
		<g>
			<rect x="6.011" y="45.21" fill="#282D33" width="5.309" height="4.007"/>
		</g>
		<g>
			<rect x="6.011" y="36.359" fill="#282D33" width="9.231" height="4.007"/>
		</g>
		<g>
			<rect x="6.011" y="27.511" fill="#282D33" width="5.309" height="4.007"/>
		</g>
		<g>
			<rect x="6.011" y="18.661" fill="#282D33" width="9.231" height="4.007"/>
		</g>
	</g>
	<g>
		<polygon fill="#282D33" points="79.375,124.959 69.221,106.601 69.221,103.276 73.228,103.276 73.228,105.565 79.375,116.681 
			85.524,105.565 85.524,103.276 89.532,103.276 89.532,106.601 		"/>
	</g>
	<g>
		<polygon fill="#282D33" points="90.357,107.498 68.397,107.498 68.397,31.009 72.404,31.009 72.404,103.49 86.351,103.49 
			86.351,31.009 90.357,31.009 		"/>
	</g>
	<g>
		<rect x="77.371" y="29.03" fill="#282D33" width="4.008" height="68.304"/>
	</g>
	<g>
		<path fill="#282D33" d="M89.544,11.066h-4.008V7.609L73.218,7.603v3.463h-4.007V7.038c0-0.992,0.465-1.934,1.277-2.583
			c0.691-0.554,1.588-0.859,2.521-0.859c0.001,0,0.003,0,0.004,0l12.732-0.001c2.095,0,3.798,1.545,3.798,3.444V11.066z"/>
	</g>
	<g>
		<path fill="#282D33" d="M90.357,30.875h-21.96V14.496h21.96V30.875z M72.404,26.867h13.946v-8.364H72.404V26.867z"/>
	</g>
	<g>
		<g>
			<rect x="49.043" y="119.651" fill="#282D33" width="4.007" height="8.349"/>
		</g>
		<g>
			<g>
				<polygon fill="#282D33" points="59.224,12.86 55.217,12.86 55.217,7.603 46.656,7.603 46.656,12.86 42.648,12.86 42.648,3.596 
					59.224,3.596 				"/>
			</g>
		</g>
		<g>
			<polygon fill="#282D33" points="42.381,97.698 42.381,60.583 46.388,60.583 46.388,93.69 55.423,93.689 55.425,60.583 
				59.432,60.583 59.43,97.697 			"/>
		</g>
		<g>
			<polygon fill="#282D33" points="56.587,122.731 45.219,122.731 45.219,113.83 49.226,113.83 49.226,118.725 52.58,118.725 
				52.58,113.83 56.587,113.83 			"/>
		</g>
		<g>
			<g>
				<path fill="#282D33" d="M60.861,61.64H41.014V11.208h19.848V61.64z M45.021,57.633h11.833V15.216H45.021V57.633z"/>
			</g>
		</g>
		<g>
			<g>
				<polygon fill="#282D33" points="33.326,62.499 33.323,20.693 58.822,20.696 58.822,24.703 37.33,24.7 37.333,62.499 				"/>
			</g>
		</g>
		<g>
			<path fill="#282D33" d="M58.611,115.438H43.196V93.949h15.415V115.438z M47.204,111.431h7.4V97.956h-7.4V111.431z"/>
		</g>
	</g>
</g>
</svg>
